<?xml version="1.0" encoding="UTF-8" standalone="no"?><svg xmlns="http://www.w3.org/2000/svg" xmlns:xlink="http://www.w3.org/1999/xlink" contentScriptType="application/ecmascript" contentStyleType="text/css" height="270px" preserveAspectRatio="none" style="width:272px;height:270px;" version="1.1" viewBox="0 0 272 270" width="272px" zoomAndPan="magnify"><defs><filter height="300%" id="fykmlrv7f5x7o" width="300%" x="-1" y="-1"><feGaussianBlur result="blurOut" stdDeviation="2.0"/><feColorMatrix in="blurOut" result="blurOut2" type="matrix" values="0 0 0 0 0 0 0 0 0 0 0 0 0 0 0 0 0 0 .4 0"/><feOffset dx="4.0" dy="4.0" in="blurOut2" result="blurOut3"/><feBlend in="SourceGraphic" in2="blurOut3" mode="normal"/></filter></defs><g><line style="stroke: #A80036; stroke-width: 1.0; stroke-dasharray: 5.0,5.0;" x1="40" x2="40" y1="38.2969" y2="229.9609"/><line style="stroke: #A80036; stroke-width: 1.0; stroke-dasharray: 5.0,5.0;" x1="138" x2="138" y1="38.2969" y2="229.9609"/><line style="stroke: #A80036; stroke-width: 1.0; stroke-dasharray: 5.0,5.0;" x1="236" x2="236" y1="38.2969" y2="229.9609"/><rect fill="#FEFECE" filter="url(#fykmlrv7f5x7o)" height="30.2969" style="stroke: #A80036; stroke-width: 1.5;" width="61" x="8" y="3"/><text fill="#000000" font-family="sans-serif" font-size="14" lengthAdjust="spacingAndGlyphs" textLength="47" x="15" y="22.9951">Queue</text><rect fill="#FEFECE" filter="url(#fykmlrv7f5x7o)" height="30.2969" style="stroke: #A80036; stroke-width: 1.5;" width="61" x="8" y="228.9609"/><text fill="#000000" font-family="sans-serif" font-size="14" lengthAdjust="spacingAndGlyphs" textLength="47" x="15" y="248.9561">Queue</text><rect fill="#FEFECE" filter="url(#fykmlrv7f5x7o)" height="30.2969" style="stroke: #A80036; stroke-width: 1.5;" width="35" x="119" y="3"/><text fill="#000000" font-family="sans-serif" font-size="14" lengthAdjust="spacingAndGlyphs" textLength="21" x="126" y="22.9951">DB</text><rect fill="#FEFECE" filter="url(#fykmlrv7f5x7o)" height="30.2969" style="stroke: #A80036; stroke-width: 1.5;" width="35" x="119" y="228.9609"/><text fill="#000000" font-family="sans-serif" font-size="14" lengthAdjust="spacingAndGlyphs" textLength="21" x="126" y="248.9561">DB</text><rect fill="#FEFECE" filter="url(#fykmlrv7f5x7o)" height="30.2969" style="stroke: #A80036; stroke-width: 1.5;" width="53" x="208" y="3"/><text fill="#000000" font-family="sans-serif" font-size="14" lengthAdjust="spacingAndGlyphs" textLength="39" x="215" y="22.9951">Client</text><rect fill="#FEFECE" filter="url(#fykmlrv7f5x7o)" height="30.2969" style="stroke: #A80036; stroke-width: 1.5;" width="53" x="208" y="228.9609"/><text fill="#000000" font-family="sans-serif" font-size="14" lengthAdjust="spacingAndGlyphs" textLength="39" x="215" y="248.9561">Client</text><polygon fill="#A80036" points="126.5,65.4297,136.5,69.4297,126.5,73.4297,130.5,69.4297" style="stroke: #A80036; stroke-width: 1.0;"/><line style="stroke: #A80036; stroke-width: 1.0;" x1="40.5" x2="132.5" y1="69.4297" y2="69.4297"/><text fill="#000000" font-family="sans-serif" font-size="13" lengthAdjust="spacingAndGlyphs" textLength="74" x="47.5" y="64.3638">Transaction</text><line style="stroke: #A80036; stroke-width: 1.0;" x1="138.5" x2="180.5" y1="98.5625" y2="98.5625"/><line style="stroke: #A80036; stroke-width: 1.0;" x1="180.5" x2="180.5" y1="98.5625" y2="111.5625"/><line style="stroke: #A80036; stroke-width: 1.0;" x1="139.5" x2="180.5" y1="111.5625" y2="111.5625"/><polygon fill="#A80036" points="149.5,107.5625,139.5,111.5625,149.5,115.5625,145.5,111.5625" style="stroke: #A80036; stroke-width: 1.0;"/><text fill="#000000" font-family="sans-serif" font-size="13" lengthAdjust="spacingAndGlyphs" textLength="69" x="145.5" y="93.4966">Processing</text><polygon fill="#A80036" points="51.5,136.6953,41.5,140.6953,51.5,144.6953,47.5,140.6953" style="stroke: #A80036; stroke-width: 1.0;"/><line style="stroke: #A80036; stroke-width: 1.0; stroke-dasharray: 2.0,2.0;" x1="45.5" x2="137.5" y1="140.6953" y2="140.6953"/><text fill="#000000" font-family="sans-serif" font-size="13" lengthAdjust="spacingAndGlyphs" textLength="18" x="57.5" y="135.6294">OK</text><line style="stroke: #A80036; stroke-width: 1.0;" x1="40.5" x2="82.5" y1="169.8281" y2="169.8281"/><line style="stroke: #A80036; stroke-width: 1.0;" x1="82.5" x2="82.5" y1="169.8281" y2="182.8281"/><line style="stroke: #A80036; stroke-width: 1.0;" x1="41.5" x2="82.5" y1="182.8281" y2="182.8281"/><polygon fill="#A80036" points="51.5,178.8281,41.5,182.8281,51.5,186.8281,47.5,182.8281" style="stroke: #A80036; stroke-width: 1.0;"/><text fill="#000000" font-family="sans-serif" font-size="13" lengthAdjust="spacingAndGlyphs" textLength="33" x="47.5" y="164.7622">Clear</text><polygon fill="#A80036" points="224.5,207.9609,234.5,211.9609,224.5,215.9609,228.5,211.9609" style="stroke: #A80036; stroke-width: 1.0;"/><line style="stroke: #A80036; stroke-width: 1.0;" x1="138.5" x2="230.5" y1="211.9609" y2="211.9609"/><text fill="#000000" font-family="sans-serif" font-size="13" lengthAdjust="spacingAndGlyphs" textLength="74" x="145.5" y="206.895">Transaction</text><!--MD5=[3e0631dcfbbbc494c8ccb1cfca8d060a]
@startuml
Queue -> DB : Transaction
DB -> DB : Processing
DB - -> Queue : OK
Queue -> Queue : Clear
DB -> Client : Transaction
@enduml

PlantUML version 1.2020.02(Sun Mar 01 11:22:07 CET 2020)
(GPL source distribution)
Java Runtime: OpenJDK Runtime Environment
JVM: OpenJDK 64-Bit Server VM
Java Version: 11.0.26+4-post-Ubuntu-1ubuntu122.04
Operating System: Linux
Default Encoding: UTF-8
Language: en
Country: null
--></g></svg>